<svg width="29" height="28" viewBox="0 0 29 28" fill="none" xmlns="http://www.w3.org/2000/svg">
<path d="M19.9375 10.5C19.9375 11.8924 19.3646 13.2277 18.3449 14.2123C17.3252 15.1969 15.9421 15.75 14.5 15.75C13.0579 15.75 11.6748 15.1969 10.6551 14.2123C9.63538 13.2277 9.0625 11.8924 9.0625 10.5C9.0625 9.10761 9.63538 7.77226 10.6551 6.78769C11.6748 5.80312 13.0579 5.25 14.5 5.25C15.9421 5.25 17.3252 5.80312 18.3449 6.78769C19.3646 7.77226 19.9375 9.10761 19.9375 10.5Z" fill="white"/>
<path fill-rule="evenodd" clip-rule="evenodd" d="M0 14C0 10.287 1.52767 6.72601 4.24695 4.10051C6.96623 1.475 10.6544 0 14.5 0C18.3456 0 22.0338 1.475 24.753 4.10051C27.4723 6.72601 29 10.287 29 14C29 17.713 27.4723 21.274 24.753 23.8995C22.0338 26.525 18.3456 28 14.5 28C10.6544 28 6.96623 26.525 4.24695 23.8995C1.52767 21.274 0 17.713 0 14V14ZM14.5 1.75C12.1107 1.75012 9.77004 2.40163 7.74735 3.62955C5.72467 4.85746 4.1022 6.61187 3.06669 8.69084C2.03117 10.7698 1.6247 13.0888 1.89406 15.381C2.16342 17.6732 3.09766 19.8454 4.58925 21.6475C5.87613 19.6455 8.70906 17.5 14.5 17.5C20.2909 17.5 23.1221 19.6437 24.4108 21.6475C25.9023 19.8454 26.8366 17.6732 27.1059 15.381C27.3753 13.0888 26.9688 10.7698 25.9333 8.69084C24.8978 6.61187 23.2753 4.85746 21.2526 3.62955C19.23 2.40163 16.8893 1.75012 14.5 1.75V1.75Z" fill="white"/>
</svg>
