<svg width="144" height="144" viewBox="0 0 144 144" fill="none" xmlns="http://www.w3.org/2000/svg">
<g filter="url(#filter0_d_61_65)">
<path d="M72 0C90.0347 0 107.331 7.16427 120.083 19.9167C132.836 32.6692 140 49.9653 140 68C140 86.0347 132.836 103.331 120.083 116.083C107.331 128.836 90.0347 136 72 136C53.9653 136 36.6692 128.836 23.9167 116.083C11.1643 103.331 4 86.0347 4 68C4 49.9653 11.1643 32.6692 23.9167 19.9167C36.6692 7.16427 53.9653 0 72 0ZM42.25 63.75C41.1228 63.75 40.0418 64.1978 39.2448 64.9948C38.4478 65.7918 38 66.8728 38 68C38 69.1272 38.4478 70.2082 39.2448 71.0052C40.0418 71.8022 41.1228 72.25 42.25 72.25H91.4905L73.241 90.491C72.8458 90.8861 72.5324 91.3553 72.3186 91.8715C72.1047 92.3878 71.9946 92.9412 71.9946 93.5C71.9946 94.0588 72.1047 94.6122 72.3186 95.1285C72.5324 95.6447 72.8458 96.1139 73.241 96.509C73.6361 96.9042 74.1053 97.2176 74.6215 97.4315C75.1378 97.6453 75.6912 97.7554 76.25 97.7554C76.8088 97.7554 77.3622 97.6453 77.8785 97.4315C78.3947 97.2176 78.8639 96.9042 79.259 96.509L104.759 71.009C105.155 70.6142 105.469 70.1452 105.683 69.6289C105.897 69.1126 106.008 68.559 106.008 68C106.008 67.441 105.897 66.8875 105.683 66.3711C105.469 65.8548 105.155 65.3858 104.759 64.991L79.259 39.491C78.8639 39.0959 78.3947 38.7824 77.8785 38.5686C77.3622 38.3547 76.8088 38.2446 76.25 38.2446C75.6912 38.2446 75.1378 38.3547 74.6215 38.5686C74.1053 38.7824 73.6361 39.0959 73.241 39.491C72.8458 39.8861 72.5324 40.3553 72.3186 40.8715C72.1047 41.3878 71.9946 41.9412 71.9946 42.5C71.9946 43.0588 72.1047 43.6122 72.3186 44.1285C72.5324 44.6447 72.8458 45.1139 73.241 45.509L91.4905 63.75H42.25Z" fill="#FF7272"/>
</g>
<defs>
<filter id="filter0_d_61_65" x="0" y="0" width="144" height="144" filterUnits="userSpaceOnUse" color-interpolation-filters="sRGB">
<feFlood flood-opacity="0" result="BackgroundImageFix"/>
<feColorMatrix in="SourceAlpha" type="matrix" values="0 0 0 0 0 0 0 0 0 0 0 0 0 0 0 0 0 0 127 0" result="hardAlpha"/>
<feOffset dy="4"/>
<feGaussianBlur stdDeviation="2"/>
<feComposite in2="hardAlpha" operator="out"/>
<feColorMatrix type="matrix" values="0 0 0 0 0 0 0 0 0 0 0 0 0 0 0 0 0 0 0.25 0"/>
<feBlend mode="normal" in2="BackgroundImageFix" result="effect1_dropShadow_61_65"/>
<feBlend mode="normal" in="SourceGraphic" in2="effect1_dropShadow_61_65" result="shape"/>
</filter>
</defs>
</svg>
