<svg width="43" height="37" viewBox="0 0 43 37" fill="none" xmlns="http://www.w3.org/2000/svg">
<path d="M21.5004 6.7785L19.5734 4.96057C15.0502 0.693251 6.7563 2.16585 3.76233 7.53083C2.35673 10.0542 2.03959 13.6975 4.60623 18.3471C7.07881 22.8241 12.2228 28.1866 21.5004 34.0277C30.7779 28.1866 35.9192 22.8241 38.3945 18.3471C40.9612 13.695 40.6467 10.0542 39.2384 7.53083C36.2444 2.16585 27.9506 0.690784 23.4274 4.9581L21.5004 6.7785ZM21.5004 37C-19.7083 12.0078 8.8123 -7.49852 21.0274 2.81951C21.1886 2.95518 21.3472 3.09578 21.5004 3.24131C21.652 3.09591 21.8098 2.95602 21.9734 2.82198C34.1858 -7.50346 62.7091 12.0053 21.5004 37Z" fill="black"/>
</svg>
