<?xml version="1.0" ?><svg id="Layer_1" style="enable-background:new 0 0 24 24;" version="1.1" viewBox="0 0 24 24" xml:space="preserve" xmlns="http://www.w3.org/2000/svg" xmlns:xlink="http://www.w3.org/1999/xlink"><title/><g id="Cake"><g><path d="M15.999,23h-0.5c-0.276,0-0.5,0.224-0.5,0.5s0.224,0.5,0.5,0.5h0.5c0.276,0,0.5-0.224,0.5-0.5    S16.275,23,15.999,23z" style="fill:#303C42;"/><path d="M19.149,21.65l-0.5,0.5c-0.196,0.196-0.196,0.514,0,0.71s0.514,0.196,0.71,0l0.5-0.5    c0.196-0.196,0.196-0.514,0-0.71S19.345,21.454,19.149,21.65z" style="fill:#303C42;"/><path d="M23.499,23h-0.5c-0.276,0-0.5,0.224-0.5,0.5s0.224,0.5,0.5,0.5h0.5c0.276,0,0.5-0.224,0.5-0.5    S23.775,23,23.499,23z" style="fill:#303C42;"/><path d="M2.649,9.65l-0.5,0.5c-0.196,0.196-0.196,0.514,0,0.71s0.514,0.196,0.71,0l0.5-0.5    c0.196-0.196,0.196-0.514,0-0.71S2.845,9.454,2.649,9.65z" style="fill:#303C42;"/><path d="M4.499,6c-0.276,0-0.5,0.224-0.5,0.5V7c0,0.276,0.224,0.5,0.5,0.5s0.5-0.224,0.5-0.5V6.5    C4.999,6.224,4.775,6,4.499,6z" style="fill:#303C42;"/><path d="M7.849,3.65c-0.196-0.196-0.514-0.196-0.71,0s-0.196,0.514,0,0.71l0.5,0.5    c0.196,0.196,0.514,0.196,0.71,0c0.196-0.196,0.196-0.514,0-0.71L7.849,3.65z" style="fill:#303C42;"/><path d="M11.149,2.15l-0.5,0.5c-0.196,0.196-0.196,0.514,0,0.71s0.514,0.196,0.71,0l0.5-0.5    c0.196-0.196,0.196-0.514,0-0.71S11.345,1.954,11.149,2.15z" style="fill:#303C42;"/><path d="M14.849,2.65c-0.196-0.196-0.514-0.196-0.71,0s-0.196,0.514,0,0.71l0,0l0.5,0.5    c0.196,0.196,0.514,0.196,0.71,0s0.196-0.514,0-0.71L14.849,2.65z" style="fill:#303C42;"/><path d="M22.999,16.29c0.132-0.055,0.234-0.165,0.28-0.3c2.26-6.23-0.958-13.113-7.188-15.373    S2.978,1.574,0.718,7.804C0.23,9.149-0.013,10.57-0.001,12c0,0.37,0,0.73,0.05,1.09l0,0C0.58,19.285,5.781,24.033,11.999,24    c0.276,0,0.5-0.224,0.5-0.5c0-1,0.2-2.17,1.17-2.53c0.258-0.098,0.388-0.387,0.29-0.645c-0.009-0.022-0.019-0.044-0.03-0.065    c-0.106-0.621-0.062-1.259,0.13-1.86c0.052-0.271-0.125-0.533-0.397-0.585c-0.071-0.014-0.143-0.012-0.213,0.005    c-3.215,0.801-6.471-1.156-7.272-4.372c-0.113-0.454-0.173-0.92-0.178-1.388l0,0l0,0c0-3.314,2.686-6,6-6    c3.314,0.017,5.986,2.717,5.969,6.03c-0.006,1.15-0.342,2.275-0.969,3.24c-0.152,0.231-0.088,0.541,0.143,0.692    c0.062,0.041,0.133,0.067,0.207,0.078c0.2,0,0.41,0,0.61,0c0.41-0.035,0.82,0.063,1.17,0.28c0.194,0.191,0.506,0.191,0.7,0    c0.29-0.3,0.58-0.35,1.18-0.35h0.46c0.386,0.002,0.766,0.094,1.11,0.27C22.713,16.358,22.867,16.355,22.999,16.29z M4.999,11.65    L4.999,11.65c-0.15,0.04-0.297,0.09-0.44,0.15h-0.06c-0.121,0.055-0.238,0.118-0.35,0.19h-0.06l-0.27,0.2l0,0l-0.22,0.2    c-0.292,0.422-0.789,0.655-1.3,0.61c-0.246-0.001-0.491-0.032-0.73-0.09l-0.21-0.07l-0.36-0.14c0-0.23,0-0.47,0-0.7    C1.012,5.925,5.947,1.01,12.022,1.023c3.306,0.007,6.433,1.5,8.517,4.067c-0.59,0.126-1.2,0.126-1.79,0l0,0    c-0.307-0.058-0.618-0.091-0.93-0.1c-0.169,0.004-0.338,0.031-0.5,0.08h-0.11c-0.164,0.053-0.321,0.124-0.47,0.21l0,0    c-0.139,0.088-0.269,0.189-0.39,0.3l-0.09,0.08c-0.126,0.122-0.24,0.256-0.34,0.4l0,0c-1.171-0.738-2.537-1.107-3.92-1.06    C8.265,4.995,5.185,7.921,4.999,11.65z" style="fill:#303C42;"/></g></g></svg>